<?xml version="1.0" standalone="no"?>
<!DOCTYPE svg PUBLIC "-//W3C//DTD SVG 20010904//EN"
 "http://www.w3.org/TR/2001/REC-SVG-20010904/DTD/svg10.dtd">
<svg version="1.0" xmlns="http://www.w3.org/2000/svg"
 width="16.000000pt" height="16.000000pt" viewBox="0 0 16.000000 16.000000"
 preserveAspectRatio="xMidYMid meet">
<metadata>
Created by potrace 1.11, written by Peter Selinger 2001-2013
</metadata>
<g transform="translate(0.000000,16.000000) scale(0.001778,-0.001778)"
fill="#000000" stroke="none">
<path d="M4168 7805 c-2 -2 -48 -6 -103 -10 -693 -46 -1417 -309 -1980 -721
-433 -315 -765 -690 -1030 -1164 -163 -290 -284 -625 -361 -1000 -12 -59 -44
-292 -50 -370 -4 -47 -8 -191 -8 -320 0 -206 4 -297 19 -415 13 -104 17 -135
25 -175 5 -25 12 -58 14 -75 17 -108 83 -351 123 -455 3 -8 7 -19 9 -25 9 -36
85 -207 136 -310 90 -180 266 -446 381 -575 96 -107 294 -293 400 -376 249
-193 558 -357 862 -459 155 -52 414 -113 550 -129 28 -4 61 -8 75 -11 152 -26
699 -27 835 -1 11 2 45 7 75 11 81 10 322 62 425 91 514 144 1012 387 1450
708 61 45 119 88 130 97 81 67 255 217 277 240 l26 27 -89 108 c-49 60 -107
129 -128 154 -21 25 -136 164 -256 310 -120 146 -241 292 -269 326 -28 33 -66
79 -85 102 -18 23 -39 42 -45 42 -6 0 -29 -17 -51 -38 -155 -147 -415 -324
-650 -444 -165 -84 -443 -187 -580 -214 -11 -2 -58 -12 -105 -21 -92 -18 -421
-25 -514 -10 -446 71 -814 311 -1051 682 -65 103 -95 160 -139 266 -34 84 -84
240 -91 289 -2 14 -9 50 -15 80 -19 96 -25 180 -25 350 0 241 19 385 76 584
131 458 424 864 804 1115 103 68 102 67 205 120 155 79 380 155 525 175 22 3
51 7 65 10 89 15 332 23 385 12 11 -2 46 -7 79 -10 74 -9 199 -40 296 -73 135
-46 385 -177 485 -255 189 -147 319 -272 430 -416 61 -80 94 -109 95 -84 1 7
27 36 254 277 68 72 135 144 150 160 15 17 83 89 150 160 68 72 134 142 147
156 13 15 74 80 135 145 62 66 141 151 177 189 l66 70 -37 40 c-344 375 -725
638 -1200 825 -146 57 -362 127 -450 145 -9 2 -39 9 -67 15 -79 18 -274 50
-345 56 -36 3 -76 8 -90 11 -26 5 -517 13 -522 8z"/>
<path d="M7550 2813 c-220 -31 -366 -99 -506 -238 -166 -162 -242 -359 -242
-626 -1 -215 55 -370 181 -500 79 -81 94 -93 176 -134 115 -58 215 -79 371
-78 228 1 439 89 596 249 113 115 181 237 219 388 30 121 32 295 5 419 -60
275 -269 468 -555 513 -41 6 -214 11 -245 7z"/>
</g>
</svg>
