<?xml version="1.0" encoding="utf-8"?>
<!-- Generator: Adobe Illustrator 16.0.0, SVG Export Plug-In . SVG Version: 6.00 Build 0)  -->
<!DOCTYPE svg PUBLIC "-//W3C//DTD SVG 1.1//EN" "http://www.w3.org/Graphics/SVG/1.1/DTD/svg11.dtd">
<svg version="1.1" id="Layer_1" xmlns="http://www.w3.org/2000/svg" xmlns:xlink="http://www.w3.org/1999/xlink" x="0px" y="0px"
	 width="573.391px" height="151px" viewBox="0 0 573.391 151" enable-background="new 0 0 573.391 151" xml:space="preserve">
<g>
	<path d="M94.2,42.1C87.931,38.7,81.731,37,75.6,37c-7.069,0-13.5,1.769-19.3,5.3c-5.8,3.535-10.369,8.4-13.7,14.6
		c-3.334,6.2-5,13.1-5,20.7c0,7.6,1.666,14.5,5,20.699c3.331,6.201,7.9,11.068,13.7,14.6c5.8,3.535,12.231,5.301,19.3,5.301
		c5.731,0,11.731-1.465,18-4.4c6.266-2.932,11.865-6.932,16.8-12l21.4,23c-7.6,8-16.634,14.369-27.1,19.1
		C94.231,148.631,83.866,151,73.6,151c-13.869,0-26.4-3.201-37.6-9.602C24.8,135,16,126.268,9.6,115.2C3.2,104.133,0,91.734,0,78
		c0-13.6,3.266-25.866,9.8-36.8c6.531-10.931,15.5-19.531,26.9-25.8C48.1,9.134,60.866,6,75,6c10.4,0,20.666,2.168,30.8,6.5
		c10.131,4.334,18.731,10.234,25.8,17.7l-21.2,25.6C105.866,50.069,100.465,45.5,94.2,42.1z"/>
	<path d="M148.397,0h35.6v148.399h-35.6V0z"/>
	<path d="M300.395,54.6c9.465,10.4,14.199,24.668,14.199,42.799c0,2.801-0.068,4.936-0.199,6.4h-75.201
		c1.732,6.135,4.732,10.834,9,14.1c4.266,3.27,9.467,4.9,15.602,4.9c4.664,0,9.164-0.932,13.5-2.799
		c4.33-1.867,8.299-4.602,11.898-8.201l18.602,18.6c-5.602,6.27-12.369,11.035-20.301,14.301c-7.934,3.27-16.9,4.9-26.9,4.9
		c-11.6,0-21.734-2.266-30.4-6.801c-8.667-4.531-15.299-10.932-19.899-19.199c-4.601-8.266-6.9-17.865-6.9-28.801
		c0-11.065,2.331-20.831,7-29.299c4.666-8.466,11.266-15,19.799-19.6c8.531-4.6,18.4-6.9,29.602-6.9
		C277.395,39,290.926,44.2,300.395,54.6z M279.995,84.8c0-6.266-1.834-11.3-5.5-15.1c-3.668-3.8-8.5-5.7-14.5-5.7
		c-5.6,0-10.301,1.869-14.1,5.6c-3.801,3.734-6.301,8.8-7.5,15.2H279.995z"/>
	<path d="M382.895,43.8c5.93-3.331,12.699-5,20.299-5v32.6c-1.199-0.131-3-0.2-5.4-0.2c-8.398,0-15.199,1.969-20.398,5.9
		c-5.201,3.934-8.201,9.3-9,16.1v55.199h-35.602V40.2h35.602v18C372.125,51.934,376.959,47.134,382.895,43.8z"/>
	<path d="M489.194,148.399L466.393,107.6l-11,11.4v29.398h-35.6V0h35.6v76.8l34.6-36.6h40.4l-39.6,41.8l40.4,66.399H489.194z"/>
	<path d="M568.592,120.2c3.199,3.199,4.799,7.334,4.799,12.4c0,5.068-1.6,9.234-4.799,12.5c-3.201,3.268-7.334,4.9-12.4,4.9
		c-4.934,0-9-1.633-12.199-4.9c-3.201-3.266-4.801-7.432-4.801-12.5c0-5.066,1.566-9.201,4.699-12.4s7.232-4.801,12.301-4.801
		C561.258,115.399,565.391,117,568.592,120.2z"/>
</g>
</svg>
